<?xml version="1.0" encoding="UTF-8"?>
<svg version="1.1" xmlns="http://www.w3.org/2000/svg" width="631" height="631">
<path d="M0 0 C208.23 0 416.46 0 631 0 C631 208.23 631 416.46 631 631 C422.77 631 214.54 631 0 631 C0 422.77 0 214.54 0 0 Z " fill="#000606" transform="translate(0,0)"/>
<path d="M0 0 C3.61824146 1.70028151 5.9477515 3.7055175 8.78100586 6.55395508 C9.24172989 7.01438705 9.70245392 7.47481903 10.17713928 7.94920349 C11.69449827 9.46795214 13.20465084 10.9936595 14.71484375 12.51953125 C15.77288188 13.58130377 16.83136559 14.64263244 17.89027405 15.70353699 C20.6760252 18.49691565 23.45572517 21.29624098 26.23419189 24.09686279 C29.05032739 26.93338239 31.87205388 29.76432739 34.69335938 32.59570312 C39.66785612 37.58932432 44.63739925 42.58782873 49.6033783 47.58992004 C52.06426737 50.06462826 54.53114317 52.53324266 57 55 C71.53125 69.53125 71.53125 69.53125 73.89379883 71.89599609 C75.14062954 73.14152607 76.38960943 74.38492092 77.64331055 75.62353516 C79.51625243 77.47493325 81.21083447 79.27626585 82.8125 81.375 C84.60678708 83.52814449 86.21680075 85.09274174 88.33906555 86.87350464 C94.43864994 92.16230747 100.06629397 97.93496484 105.76245117 103.64892578 C107.03607547 104.92283259 108.30992088 106.19651838 109.58396912 107.47000122 C113.02398006 110.90972654 116.46090935 114.3525159 119.89727569 117.79588175 C123.50192435 121.40680952 127.10943178 125.014879 130.71662903 128.6232605 C137.54415513 135.45388899 144.36913021 142.28706046 151.19318038 149.12116134 C158.94513292 156.88428509 166.6999178 164.64457685 174.45494878 172.40462518 C187.71109818 185.66944934 200.9651389 198.93637737 214.21679688 212.20568848 C214.77645954 212.76609074 215.3361222 213.32649299 215.91274434 213.90387714 C216.93830889 214.93080829 217.96385746 215.95775541 218.98938531 216.98472321 C221.99167923 219.99106095 224.99540447 222.99596262 228 226 C258 256 258 256 260.20842266 258.2092638 C263.26095609 261.26087746 266.31609605 264.30986431 269.3717804 267.35832214 C270.67059981 268.65420894 271.96941232 269.95010264 273.26821899 271.2460022 C273.95754642 271.93377872 274.64687386 272.62155525 275.35709 273.33017349 C291.19814866 289.13592995 307.03355214 304.94734174 322.86567402 320.76204967 C332.01883106 329.90486906 341.17387149 339.04578801 350.33325195 348.18237305 C358.32934419 356.15857524 366.32195334 364.13824818 374.31034249 372.1221655 C378.53867746 376.34788746 382.76877082 380.57181556 387.00304604 384.79158592 C390.97915085 388.75417696 394.95060433 392.72136903 398.91844749 396.69223213 C400.37928639 398.15251825 401.84185562 399.61107561 403.30622864 401.06781769 C405.29648152 403.04820125 407.28056233 405.03456387 409.26313782 407.02262878 C409.85115136 407.60481664 410.4391649 408.1870045 411.04499704 408.78683442 C415 412.7717565 415 412.7717565 415 415 C401.95237568 415.18546266 388.90506554 415.32755977 375.85639095 415.41449738 C369.79709717 415.45622632 363.73870595 415.5128148 357.67993164 415.60351562 C351.8313722 415.69052032 345.9836801 415.73829139 340.13452339 415.75901794 C337.90450956 415.77378564 335.67454256 415.80262482 333.44489861 415.84584045 C330.31761483 415.90403677 327.19390135 415.91190837 324.06616211 415.90820312 C322.68727562 415.95134644 322.68727562 415.95134644 321.28053284 415.99536133 C315.00459821 415.91505619 315.00459821 415.91505619 312.33484399 413.48326296 C311.82224547 412.83590844 311.30964694 412.18855392 310.78151512 411.5215826 C306.72742139 406.62626703 302.3179141 402.17890244 297.81962585 397.69264221 C296.91667449 396.78813086 296.01372313 395.88361951 295.08340961 394.95169872 C292.5969746 392.46111696 290.10746445 389.97362969 287.617401 387.48667634 C284.92513541 384.7966835 282.23576153 382.10380216 279.54600525 379.41130066 C274.28586559 374.14672544 269.02303964 368.88484365 263.75923004 363.62393809 C259.48316672 359.35013607 255.208084 355.07535546 250.93369484 350.79987907 C250.02011444 349.88606883 250.02011444 349.88606883 249.08807788 348.95379777 C247.85075784 347.71615801 246.61344005 346.478516 245.37612448 345.24087178 C233.78896909 333.65086847 222.19875666 322.06392616 210.60748855 310.47803622 C200.65610051 300.53112236 190.7073467 290.5815801 180.76049805 280.63012695 C169.20585164 269.07013429 157.64959172 257.51175861 146.09073478 245.95597595 C144.8595632 244.72512292 143.62839371 243.4942678 142.39722633 242.26341057 C141.79146841 241.65780692 141.18571049 241.05220328 140.56159627 240.42824801 C136.2870091 236.15452534 132.0135856 231.8796412 127.74060631 227.60431099 C122.54003426 222.40094048 117.33769676 217.19934296 112.13305631 212.00004173 C109.47637417 209.34599494 106.82051129 206.69114149 104.16679382 204.0341301 C101.29571067 201.15953695 98.42079897 198.28880443 95.54545593 195.41847229 C94.70004783 194.57083346 93.85463972 193.72319464 92.98361319 192.84986979 C92.21760096 192.0864653 91.45158873 191.32306082 90.66236401 190.53652287 C89.99861017 189.87293139 89.33485634 189.20933991 88.65098876 188.52563959 C87.06139792 186.91462558 87.06139792 186.91462558 85 186 C85 261.57 85 337.14 85 415 C57.28 415 29.56 415 1 415 C0 414 0 414 -0.1241985 411.22122139 C-0.12381878 409.96396737 -0.12343906 408.70671336 -0.12304783 407.41136074 C-0.12420167 406.71122019 -0.12535552 406.01107964 -0.12654433 405.28972271 C-0.12921772 402.91402682 -0.12468294 400.53839701 -0.12025452 398.16270447 C-0.12069007 396.4541739 -0.12156469 394.74564339 -0.12284368 393.03711325 C-0.12509174 388.3191126 -0.12106314 383.60113442 -0.11606562 378.88313663 C-0.11176574 373.80403381 -0.11320721 368.72493237 -0.1139679 363.64582825 C-0.11449343 354.83826838 -0.11134361 346.03071589 -0.10573006 337.22315788 C-0.09761897 324.48875025 -0.09500024 311.75434621 -0.09374207 299.01993627 C-0.09155093 278.36151473 -0.08488918 257.70309713 -0.07543945 237.04467773 C-0.06626693 216.97143575 -0.05918532 196.89819483 -0.05493164 176.82495117 C-0.05466892 175.58859773 -0.05440619 174.35224428 -0.05413551 173.07842558 C-0.05283052 166.87629072 -0.0515668 160.67415585 -0.05032361 154.47202098 C-0.03994907 102.9813446 -0.02232909 51.49067249 0 0 Z " fill="#0071B6" transform="translate(96,162)"/>
<path d="M0 0 C144.21 0 288.42 0 437 0 C437 28.05 437 56.1 437 85 C378.92 85 320.84 85 261 85 C261 148.69 261 212.38 261 278 C257.63270038 276.31635019 256.05645052 275.30503794 253.51983643 272.76034546 C252.8496196 272.09287796 252.17940277 271.42541046 251.48887634 270.73771667 C250.40238548 269.64043999 250.40238548 269.64043999 249.29394531 268.52099609 C248.52282913 267.75017197 247.75171295 266.97934784 246.95722961 266.18516541 C244.40942562 263.635968 241.86877909 261.07975928 239.328125 258.5234375 C237.56307862 256.75466104 235.79759018 254.98632561 234.03167725 253.21841431 C229.8596509 249.03953172 225.69210152 244.85621906 221.52669883 240.67073691 C215.4855292 234.60108026 209.4353407 228.5404246 203.38624573 222.47866821 C194.91843611 213.99146309 186.46015854 205.49486293 178 197 C177.67 218.45 177.34 239.9 177 262 C176.67 262 176.34 262 176 262 C176 203.59 176 145.18 176 85 C140.48790813 85.27693257 140.48790813 85.27693257 104.9765625 85.63061523 C98.09375 85.66223145 98.09375 85.66223145 94.8671875 85.66810608 C92.62327346 85.67882508 90.37939869 85.7033831 88.13574219 85.73902893 C84.72780811 85.7904453 81.32232765 85.79733699 77.9140625 85.79467773 C76.92169586 85.81986449 75.92932922 85.84505125 74.90689087 85.87100124 C68.52001275 85.80451177 65.29960771 84.42478978 60.77755737 79.90305996 C60.19096344 79.27505017 59.60436951 78.64704039 59 78 C57.96094313 76.99504882 56.91912505 75.9929414 55.87402344 74.99427795 C54.86660809 73.98968537 53.86179985 72.98247276 52.859375 71.97290039 C52.30225327 71.41592468 51.74513153 70.85894897 51.17112732 70.28509521 C49.36169931 68.47498011 47.55582218 66.661368 45.75 64.84765625 C44.48369957 63.57948736 43.21717567 62.31154158 41.95043945 61.04380798 C38.64061579 57.73019289 35.3338081 54.41358428 32.02764893 51.09631348 C28.04752221 47.1040862 24.06360738 43.11563948 20.08033752 39.12654877 C14.05067324 33.08723542 8.025799 27.04318112 2 21 C1.67 42.45 1.34 63.9 1 86 C0.67 86 0.34 86 0 86 C0 57.62 0 29.24 0 0 Z " fill="#0085E3" transform="translate(96,53)"/>
<path d="M0 0 C28.05 0 56.1 0 85 0 C85.13004523 33.11760789 85.25805291 66.23522121 85.38218227 99.35285166 C85.39718432 103.35478204 85.41220836 107.35671233 85.42724609 111.35864258 C85.43023671 112.15462158 85.43322732 112.95060058 85.43630856 113.77070015 C85.47765908 124.76454938 85.52016811 135.75839355 85.56369197 146.75223438 C85.63924239 165.83611398 85.71226165 184.92000173 85.78125 204.00390625 C85.78399162 204.76086888 85.78673324 205.51783152 85.78955793 206.29773241 C86.03854224 275.19852557 86.05672318 344.0988394 86 413 C57.29889147 407.03431593 24.24545101 369.19741004 8.24865723 345.38684082 C-9.66637049 317.80562124 -8.10965707 281.49193689 -8.0078125 249.8046875 C-8.0056913 248.9038596 -8.0035701 248.0030317 -8.00138462 247.07490599 C-7.92655579 223.72874609 -7.04999075 200.4328559 -5.90618587 177.11771798 C-5.24926576 163.57665868 -4.80637307 150.04030215 -4.50439453 136.48681641 C-4.48285121 135.52265119 -4.46130788 134.55848598 -4.43911172 133.56510364 C-4.33204185 128.72461152 -4.22843152 123.8840527 -4.12653565 119.04344916 C-3.28614773 79.33045725 -1.78118973 39.68410513 0 0 Z " fill="#0068A4" transform="translate(448,161)"/>
<path d="M0 0 C0.99471817 0.8533342 1.98943634 1.7066684 3.01429749 2.58586121 C5.58034485 4.78615111 8.15169676 6.97998538 10.72703552 9.16938782 C22.56228212 19.26389167 34.10387117 29.65804806 45.4375 40.3125 C46.77691399 41.57053688 46.77691399 41.57053688 48.14338684 42.85398865 C87.02958314 79.64110962 87.02958314 79.64110962 88.30076599 106.09199524 C88.57313577 119.82412799 86.46388947 133.75007502 83 147 C82.00528183 146.1466658 81.01056366 145.2933316 79.98570251 144.41413879 C77.41965515 142.21384889 74.84830324 140.02001462 72.27296448 137.83061218 C60.43771788 127.73610833 48.89612883 117.34195194 37.5625 106.6875 C36.66955734 105.84880875 35.77661469 105.01011749 34.85661316 104.14601135 C-4.02958314 67.35889038 -4.02958314 67.35889038 -5.30076599 40.90800476 C-5.57313577 27.17587201 -3.46388947 13.24992498 0 0 Z " fill="#000001" transform="translate(449,425)"/>
<path d="M0 0 C0.70007629 0.00423136 1.40015258 0.00846272 2.1214433 0.0128223 C2.86210482 0.01335683 3.60276634 0.01389136 4.36587214 0.01444209 C6.87941948 0.01750098 9.39288759 0.02778518 11.90641549 0.03796211 C13.71394028 0.04165233 15.52146602 0.04490251 17.32899234 0.04774734 C22.32064065 0.05689049 27.31225326 0.07232495 32.30388227 0.08873013 C37.67745812 0.10530809 43.05104581 0.11613198 48.42463449 0.12763801 C57.74294387 0.14838595 67.06123784 0.17281772 76.37953141 0.19971862 C89.85238776 0.23860803 103.32525328 0.27199284 116.79812749 0.30401389 C138.65450109 0.35611044 160.51086071 0.41268784 182.36721566 0.4720594 C203.60451481 0.52973979 224.84181773 0.58532459 246.07912973 0.63807502 C247.38717107 0.64132474 248.6952124 0.64457446 250.04289136 0.64792266 C256.60464385 0.6642118 263.16639644 0.68045957 269.72814909 0.69668677 C324.204779 0.83146094 378.68138828 0.97349703 433.15798715 1.12025276 C433.15798715 1.45025276 433.15798715 1.78025276 433.15798715 2.12025276 C288.94798715 2.12025276 144.73798715 2.12025276 -3.84201285 2.12025276 C-3.84201285 30.17025276 -3.84201285 58.22025276 -3.84201285 87.12025276 C-4.17201285 87.12025276 -4.50201285 87.12025276 -4.84201285 87.12025276 C-4.9955864 75.92458925 -5.14376817 64.72886881 -5.28497645 53.5330421 C-5.35070932 48.33494028 -5.41833244 43.1368771 -5.49020621 37.93885627 C-5.5594391 32.92688119 -5.62379726 27.91486549 -5.68470809 22.90278259 C-5.70887092 20.98610914 -5.73482051 19.06945739 -5.76254699 17.15283218 C-5.80094276 14.47802582 -5.83310883 11.80321429 -5.86374137 9.1283094 C-5.88316039 7.92745704 -5.88316039 7.92745704 -5.90297171 6.70234504 C-5.92103885 4.84162438 -5.88723449 2.98051156 -5.84201285 1.12025276 C-4.18818044 -0.53357965 -2.2091742 0.00285358 0 0 Z " fill="#002020" transform="translate(99.84201285243034,50.87974724173546)"/>
<path d="M0 0 C0.33 0 0.66 0 1 0 C1 86.13 1 172.26 1 261 C-2.39570068 259.30214966 -3.99141048 258.2570634 -6.55609131 255.68441772 C-7.24313644 255.00012192 -7.93018158 254.31582611 -8.63804626 253.61079407 C-9.38107498 252.8605748 -10.1241037 252.11035553 -10.88964844 251.33740234 C-12.07558342 250.15190544 -12.07558342 250.15190544 -13.28547668 248.94245911 C-15.89821109 246.32833109 -18.50378954 243.70718956 -21.109375 241.0859375 C-22.91926192 239.27232057 -24.72959083 237.45914463 -26.54034424 235.64639282 C-30.81862071 231.36125966 -35.09241301 227.07170349 -39.36406636 222.77997172 C-44.22831018 217.89336221 -49.09824386 213.0124401 -53.96866179 208.13198543 C-63.98544799 198.09430211 -73.99507421 188.04950407 -84 178 C-81 178 -81 178 -79.39708424 179.23377228 C-78.81727645 179.81634544 -78.23746866 180.39891861 -77.64009094 180.99914551 C-76.97124878 181.66386368 -76.30240662 182.32858185 -75.61329651 183.01344299 C-74.52141273 184.12150551 -74.52141273 184.12150551 -73.4074707 185.25195312 C-72.63650055 186.0224852 -71.8655304 186.79301727 -71.07119751 187.5868988 C-68.51555396 190.14463833 -65.97070992 192.71285261 -63.42578125 195.28125 C-61.659523 197.0531013 -59.8926028 198.82429296 -58.12504578 200.59484863 C-53.94405094 204.78614147 -49.76979092 208.9840643 -45.59871787 213.18522501 C-40.38447321 218.43626443 -35.15989101 223.6769807 -29.93554688 228.91796875 C-20.61535653 238.27036406 -11.30443728 247.63193364 -2 257 C-1.26925243 219.51176654 -0.87633499 182.02593382 -0.68359375 144.53125 C-0.67818085 143.4782584 -0.67276795 142.4252668 -0.66719103 141.34036636 C-0.60108636 128.37078095 -0.54077651 115.4011712 -0.48259127 102.43154812 C-0.43217714 91.22604105 -0.37766133 80.02055487 -0.32291877 68.81506824 C-0.21094322 45.87673173 -0.1037473 22.93837511 0 0 Z " fill="#0F4E4E" transform="translate(357,138)"/>
<path d="M0 0 C143.55 0 287.1 0 435 0 C435 0.33 435 0.66 435 1 C291.78 1 148.56 1 1 1 C1.33 6.28 1.66 11.56 2 17 C2 17.99 2 18.98 2 20 C1.34 19.67 0.68 19.34 0 19 C0 12.73 0 6.46 0 0 Z " fill="#0774D9" transform="translate(97,54)"/>
<path d="M0 0 C0.33 0 0.66 0 1 0 C0.83265854 0.63445541 0.66531708 1.26891083 0.49290466 1.92259216 C-1.60318629 10.34595108 -2.86201986 18.79533535 -3.5625 27.4375 C-3.64869032 28.49152575 -3.64869032 28.49152575 -3.73662186 29.56684494 C-5.10490763 49.12282871 -0.2975975 63.88559677 12.41684151 78.88247871 C33.92937897 103.30045478 58.85650244 124.24473094 83 146 C83.66 102.44 84.32 58.88 85 14 C85.33 14 85.66 14 86 14 C86 58.55 86 103.1 86 149 C82.21935602 148.05483901 81.18275778 147.60436306 78.40594482 145.21083069 C77.71045973 144.61501631 77.01497463 144.01920193 76.29841423 143.40533257 C75.54606058 142.74571589 74.79370693 142.08609921 74.01855469 141.40649414 C73.21841005 140.71130739 72.41826542 140.01612064 71.59387398 139.29986763 C61.09981888 130.11855823 50.86644711 120.65632337 40.75 111.0625 C40.26523099 110.60413663 39.78046198 110.14577326 39.281003 109.67352009 C-4.36136711 68.37046538 -4.36136711 68.37046538 -5.73046875 41.18293762 C-5.82146293 36.71608918 -5.55833469 32.31921979 -5.125 27.875 C-5.05507339 27.15591084 -4.98514679 26.43682167 -4.9131012 25.69594193 C-3.99537822 16.96219622 -2.38902549 8.45929867 0 0 Z " fill="#295E5F" transform="translate(448,425)"/>
<path d="M0 0 C27.39 0 54.78 0 83 0 C82.67 0.99 82.34 1.98 82 3 C73.93177148 3.02338141 65.86355759 3.04104445 57.79530334 3.05181217 C54.04711696 3.05698544 50.2989541 3.06397936 46.55078125 3.07543945 C42.91974666 3.08646931 39.2887344 3.09231841 35.65768433 3.09487724 C33.62863426 3.09756853 31.59959292 3.10534683 29.57055664 3.11329651 C20.34167274 3.11384104 11.19937565 2.67079573 2 2 C2.00114555 2.57958497 2.00229111 3.15916994 2.00347137 3.75631809 C2.02812335 18.29634077 1.94939726 32.83211946 1.78125 47.37109375 C1.75871886 49.40088276 1.73630098 51.43067304 1.71398926 53.46046448 C1.65592482 58.71598591 1.59635756 63.97148918 1.53643799 69.22698975 C1.47517704 74.62462334 1.41539164 80.02227329 1.35546875 85.41992188 C1.23839395 95.94663075 1.1197258 106.47332097 1 117 C0.67 117 0.34 117 0 117 C0 78.39 0 39.78 0 0 Z " fill="#0076BE" transform="translate(449,162)"/>
<path d="M0 0 C0.33 0 0.66 0 1 0 C1 63.69 1 127.38 1 193 C-2.68753843 191.15623078 -4.50068924 189.7350152 -7.328125 186.8671875 C-8.12734375 186.06152344 -8.9265625 185.25585938 -9.75 184.42578125 C-10.575 183.58402344 -11.4 182.74226562 -12.25 181.875 C-13.51070313 180.60076172 -13.51070313 180.60076172 -14.796875 179.30078125 C-16.86915683 177.20495077 -18.93662393 175.10459287 -21 173 C-19.68 172.67 -18.36 172.34 -17 172 C-17 172.99 -17 173.98 -17 175 C-14.66785852 176.20628008 -12.50357861 177.1654738 -10 178 C-9.525625 178.825 -9.05125 179.65 -8.5625 180.5 C-7.25447976 183.15872085 -7.25447976 183.15872085 -4.8125 183.8125 C-4.214375 183.874375 -3.61625 183.93625 -3 184 C-3.495 183.01 -3.495 183.01 -4 182 C-3.51322375 181.6525986 -3.02644751 181.3051972 -2.52492046 180.94726849 C-0.21909734 178.00281545 -0.6142291 175.54667542 -0.60127258 171.84370422 C-0.59462576 171.11018508 -0.58797893 170.37666593 -0.58113068 169.62091893 C-0.56243807 167.15640039 -0.5651101 164.69236467 -0.56762695 162.2277832 C-0.55861359 160.46380931 -0.54828743 158.69984171 -0.53674316 156.93588257 C-0.50909693 152.1407422 -0.49987833 147.34572041 -0.49388909 142.55051064 C-0.48452522 137.5416162 -0.4583235 132.53281104 -0.43388367 127.52397156 C-0.39016018 118.03615147 -0.36164918 108.54834865 -0.33856028 99.06045836 C-0.31153992 88.2600594 -0.2676265 77.45974999 -0.22227156 66.65941489 C-0.12934153 44.43965805 -0.05769911 22.21987441 0 0 Z " fill="#0091C6" transform="translate(356,138)"/>
<path d="M0 0 C3.26945994 1.63472997 4.77611698 2.52845695 7.20800781 4.98095703 C8.10848846 5.88166428 8.10848846 5.88166428 9.02716064 6.80056763 C9.980513 7.76940384 9.980513 7.76940384 10.953125 8.7578125 C11.61334656 9.42086395 12.27356812 10.08391541 12.95379639 10.76705933 C15.05727824 12.88171832 17.15369142 15.00323212 19.25 17.125 C20.67662261 18.56165557 22.10370072 19.99785898 23.53125 21.43359375 C27.02613661 24.95050804 30.51470062 28.47358547 34 32 C33.67 32.99 33.34 33.98 33 35 C32.01 34.67 31.02 34.34 30 34 C30 33.01 30 32.02 30 31 C29.01 30.67 28.02 30.34 27 30 C25.31267723 28.01739574 23.64633943 26.0167658 22 24 C21.01 23.34 20.02 22.68 19 22 C18.03146865 20.92294973 17.09570971 19.81588176 16.1875 18.6875 C14.15331845 16.2403643 12.11660749 14.16664921 9.625 12.1875 C8.75875 11.465625 7.8925 10.74375 7 10 C7 9.34 7 8.68 7 8 C6.01 7.67 5.02 7.34 4 7 C4 6.34 4 5.68 4 5 C3.34 5 2.68 5 2 5 C2.00222061 6.02872726 2.00444122 7.05745453 2.00672913 8.11735535 C2.0270038 17.81373543 2.04199302 27.51011121 2.05181217 37.20650768 C2.05702999 42.1914731 2.06410769 47.17642139 2.07543945 52.16137695 C2.0863074 56.97242209 2.09228514 61.78345076 2.09487724 66.59450722 C2.09672443 68.42970349 2.10033151 70.26489886 2.10573006 72.10008812 C2.1129923 74.67115601 2.11398875 77.24215592 2.11352539 79.81323242 C2.11712067 80.57136734 2.12071594 81.32950226 2.12442017 82.11061096 C2.11709709 85.86758788 1.90545566 89.34748443 1 93 C0.67 93 0.34 93 0 93 C0 62.31 0 31.62 0 0 Z " fill="#047ECE" transform="translate(97,163)"/>
<path d="M0 0 C1.7074998 1.28062485 3.37373596 2.61767557 5 4 C5 4.66 5 5.32 5 6 C-28.33 6 -61.66 6 -96 6 C-96 5.34 -96 4.68 -96 4 C-64.98 4 -33.96 4 -2 4 C-2 3.34 -2 2.68 -2 2 C-1.34 2 -0.68 2 0 2 C0 1.34 0 0.68 0 0 Z " fill="#005B81" transform="translate(506,571)"/>
<path d="M0 0 C0.33 0 0.66 0 1 0 C1 44.55 1 89.1 1 135 C0.01 135 -0.98 135 -2 135 C-1.34 90.45 -0.68 45.9 0 0 Z " fill="#0F4A4A" transform="translate(533,439)"/>
<path d="M0 0 C8.25 0.33 16.5 0.66 25 1 C25 1.66 25 2.32 25 3 C25.99 3.495 25.99 3.495 27 4 C-0.72 4 -28.44 4 -57 4 C-54.41074331 1.41074331 -53.32930568 1.73053843 -49.72412109 1.68115234 C-48.6231308 1.66128265 -47.5221405 1.64141296 -46.38778687 1.62094116 C-45.19505157 1.60938995 -44.00231628 1.59783875 -42.7734375 1.5859375 C-41.55548492 1.56657135 -40.33753235 1.5472052 -39.08267212 1.5272522 C-35.1801867 1.46731785 -31.27767201 1.42101529 -27.375 1.375 C-24.7343619 1.33683301 -22.09373643 1.29778205 -19.453125 1.2578125 C-12.96886174 1.16160496 -6.48452292 1.07659824 0 1 C0 0.67 0 0.34 0 0 Z " fill="#006280" transform="translate(154,573)"/>
<path d="M0 0 C4.69891025 3.84456293 9.10360141 7.94063776 13.4375 12.1875 C13.98180664 12.71053711 14.52611328 13.23357422 15.08691406 13.77246094 C16.45076011 15.12415304 17.73245145 16.55761717 19 18 C19 18.99 19 19.98 19 21 C18.34 21 17.68 21 17 21 C17 21.66 17 22.32 17 23 C-14.02 23 -45.04 23 -77 23 C-77 22.67 -77 22.34 -77 22 C-56.37069215 20.76727307 -35.77350469 21.05476292 -15.125 21.4375 C-14.08731728 21.45672075 -14.08731728 21.45672075 -13.02867126 21.4763298 C-4.35218409 21.63822063 4.32401287 21.81321598 13 22 C14.2236068 19.9254644 14.2236068 19.9254644 14 17 C11.97855006 14.37211508 10.23490776 13.55774272 7 13 C6.896875 12.401875 6.79375 11.80375 6.6875 11.1875 C5.87744486 8.61005181 5.19710995 7.56936425 3 6 C0.37429296 5.74930087 0.37429296 5.74930087 -2 6 C-2 5.34 -2 4.68 -2 4 C-1.34 4 -0.68 4 0 4 C0 2.68 0 1.36 0 0 Z " fill="#0050BD" transform="translate(487,552)"/>
<path d="M0 0 C1.32 0 2.64 0 4 0 C4 0.99 4 1.98 4 3 C6.33214148 4.20628008 8.49642139 5.1654738 11 6 C11.474375 6.825 11.94875 7.65 12.4375 8.5 C13.74552024 11.15872085 13.74552024 11.15872085 16.1875 11.8125 C16.785625 11.874375 17.38375 11.93625 18 12 C17.67 11.34 17.34 10.68 17 10 C18.32 9.01 19.64 8.02 21 7 C21 11.62 21 16.24 21 21 C15.95179121 16.77041966 11.20353723 12.35800414 6.5625 7.6875 C5.92634766 7.05521484 5.29019531 6.42292969 4.63476562 5.77148438 C4.03470703 5.17013672 3.43464844 4.56878906 2.81640625 3.94921875 C2.27443604 3.40612061 1.73246582 2.86302246 1.17407227 2.3034668 C0 1 0 1 0 0 Z " fill="#0C72C6" transform="translate(335,310)"/>
<path d="M0 0 C2 2 2 2 2.20254517 5.46743774 C2.19054488 6.98833828 2.16718913 8.50917259 2.13525391 10.02978516 C2.12579239 10.85913071 2.11633087 11.68847626 2.10658264 12.54295349 C2.07282947 15.29187717 2.0247352 18.04035676 1.9765625 20.7890625 C1.95040314 22.69191315 1.92513552 24.59477625 1.90072632 26.49765015 C1.83399919 31.5119601 1.75512297 36.526009 1.67376709 41.5401001 C1.59292119 46.65423544 1.52349496 51.76852418 1.453125 56.8828125 C1.31329796 66.92205891 1.16064353 76.96106663 1 87 C0.67 87 0.34 87 0 87 C-0.15357355 75.80433649 -0.30175531 64.60861605 -0.4429636 53.41278934 C-0.50869647 48.21468752 -0.57631959 43.01662434 -0.64819336 37.81860352 C-0.71742625 32.80662843 -0.78178441 27.79461273 -0.84269524 22.78252983 C-0.86685807 20.86585638 -0.89280766 18.94920463 -0.92053413 17.03257942 C-0.95892991 14.35777306 -0.99109597 11.68296153 -1.02172852 9.00805664 C-1.04114754 7.80720428 -1.04114754 7.80720428 -1.06095886 6.58209229 C-1.07902599 4.72137162 -1.04522164 2.8602588 -1 1 C-0.67 0.67 -0.34 0.34 0 0 Z " fill="#001717" transform="translate(95,51)"/>
<path d="M0 0 C1.8125 1.5625 1.8125 1.5625 2.5625 5.1875 C2.68625 6.858125 2.68625 6.858125 2.8125 8.5625 C6.2775 8.0675 6.2775 8.0675 9.8125 7.5625 C9.8125 10.5325 9.8125 13.5025 9.8125 16.5625 C4.15120569 11.86483025 -1.03978904 6.81526628 -6.1875 1.5625 C-2.4609375 -0.4921875 -2.4609375 -0.4921875 0 0 Z " fill="#0978CF" transform="translate(312.1875,280.4375)"/>
<path d="M0 0 C6.78376359 5.55035203 12.85522968 11.76442027 19 18 C17.68 18.33 16.36 18.66 15 19 C14.4225 18.195625 13.845 17.39125 13.25 16.5625 C11.01873107 14.02133261 10.25543229 13.34879632 7 13 C6.896875 12.401875 6.79375 11.80375 6.6875 11.1875 C5.87744486 8.61005181 5.19710995 7.56936425 3 6 C0.37429296 5.74930087 0.37429296 5.74930087 -2 6 C-2 5.34 -2 4.68 -2 4 C-1.34 4 -0.68 4 0 4 C0 2.68 0 1.36 0 0 Z " fill="#005DA3" transform="translate(487,552)"/>
<path d="M0 0 C4.69350812 1.24239921 6.77517676 3.77007922 9.66796875 7.44140625 C10.93649295 9.13049223 10.93649295 9.13049223 13 10 C13 10.99 13 11.98 13 13 C12.01 13 11.02 13 10 13 C9.71125 12.360625 9.4225 11.72125 9.125 11.0625 C8.17176549 8.84793921 8.17176549 8.84793921 6 8 C5.67 8.66 5.34 9.32 5 10 C4.01 9.67 3.02 9.34 2 9 C2.33 8.01 2.66 7.02 3 6 C2.34 5.67 1.68 5.34 1 5 C0.375 2.4375 0.375 2.4375 0 0 Z " fill="#007EC4" transform="translate(170,237)"/>
<path d="M0 0 C4.44926052 0.41314562 6.84100104 3.50461527 9.75 6.5625 C10.25660156 7.08263672 10.76320312 7.60277344 11.28515625 8.13867188 C12.53034405 9.41910084 13.76611502 10.70867554 15 12 C13.140625 12.58984375 13.140625 12.58984375 11 13 C8.75 11.5625 8.75 11.5625 7 10 C7.33 9.67 7.66 9.34 8 9 C7.34 8.67 6.68 8.34 6 8 C6 7.01 6 6.02 6 5 C5.01 5.33 4.02 5.66 3 6 C0 2.25 0 2.25 0 0 Z " fill="#007FC3" transform="translate(132,199)"/>
<path d="M0 0 C7.45762712 4.74576271 7.45762712 4.74576271 10 8 C9.75 10.25 9.75 10.25 9 12 C9 11.34 9 10.68 9 10 C8.34 10 7.68 10 7 10 C5.62150897 8.71340837 4.29470975 7.37086915 3 6 C2.2575 5.2575 1.515 4.515 0.75 3.75 C0.1725 3.1725 -0.405 2.595 -1 2 C-0.67 1.34 -0.34 0.68 0 0 Z " fill="#0081C7" transform="translate(147,213)"/>
<path d="M0 0 C0.66 0 1.32 0 2 0 C1.79375 0.763125 1.5875 1.52625 1.375 2.3125 C0.66608797 5.21885944 0.66608797 5.21885944 3 8 C0 8 0 8 -1.60546875 6.46875 C-2.12753906 5.8190625 -2.64960938 5.169375 -3.1875 4.5 C-3.71730469 3.8503125 -4.24710937 3.200625 -4.79296875 2.53125 C-5.19128906 2.0259375 -5.58960938 1.520625 -6 1 C-4.7934375 1.0309375 -4.7934375 1.0309375 -3.5625 1.0625 C-1.06645115 1.29633621 -1.06645115 1.29633621 0 0 Z " fill="#067CD0" transform="translate(304,272)"/>
<path d="M0 0 C0.66 0 1.32 0 2 0 C2 2.97 2 5.94 2 9 C-4.875 3.25 -4.875 3.25 -6 1 C-3.03 1.495 -3.03 1.495 0 2 C0 1.34 0 0.68 0 0 Z " fill="#0978CE" transform="translate(328,296)"/>
<path d="M0 0 C0 4.62 0 9.24 0 14 C-0.99 13.34 -1.98 12.68 -3 12 C-3.125 8.5 -3.125 8.5 -3 5 C-3.33 4.34 -3.66 3.68 -4 3 C-1.125 0 -1.125 0 0 0 Z " fill="#047ACA" transform="translate(356,317)"/>
<path d="M0 0 C2.125 0.375 2.125 0.375 4 1 C4 2.32 4 3.64 4 5 C4.66 5.66 5.32 6.32 6 7 C5.34 7.66 4.68 8.32 4 9 C2.02 6.69 0.04 4.38 -2 2 C-1.34 1.34 -0.68 0.68 0 0 Z " fill="#0879D3" transform="translate(284,255)"/>
<path d="M0 0 C2.9375 1.25 2.9375 1.25 6 3 C6.875 5.1875 6.875 5.1875 7 7 C3.31245243 6.50168276 1.39509338 5.89932357 -1 3 C-0.67 2.01 -0.34 1.02 0 0 Z " fill="#005EAE" transform="translate(388,550)"/>
<path d="M0 0 C2.97 0.495 2.97 0.495 6 1 C6.66 2.98 7.32 4.96 8 7 C5 7 5 7 2.3125 4.625 C0 2 0 2 0 0 Z " fill="#0752AF" transform="translate(507,481)"/>
<path d="M0 0 C6.875 5.75 6.875 5.75 8 8 C7.401875 7.79375 6.80375 7.5875 6.1875 7.375 C3.71549154 6.69328085 3.71549154 6.69328085 1 9 C0.67 6.03 0.34 3.06 0 0 Z " fill="#00668E" transform="translate(356,421)"/>
<path d="M0 0 C0.99 0.33 1.98 0.66 3 1 C3 1.99 3 2.98 3 4 C3.99 4 4.98 4 6 4 C6.33 5.32 6.66 6.64 7 8 C4 8 4 8 1.3125 5.5 C0.549375 4.675 -0.21375 3.85 -1 3 C-0.67 2.01 -0.34 1.02 0 0 Z " fill="#0951B1" transform="translate(516,488)"/>
<path d="M0 0 C0.66 0 1.32 0 2 0 C2.66 0.66 3.32 1.32 4 2 C4.99 2.66 5.98 3.32 7 4 C7.33 4.33 7.66 4.66 8 5 C7.34 6.32 6.68 7.64 6 9 C3.69 6.69 1.38 4.38 -1 2 C-0.67 1.34 -0.34 0.68 0 0 Z " fill="#006F9F" transform="translate(299,462)"/>
<path d="M0 0 C2.31 1.98 4.62 3.96 7 6 C5.68 6.99 4.36 7.98 3 9 C0.87491756 5.81237635 0.4979837 3.73487777 0 0 Z " fill="#005F9D" transform="translate(452,517)"/>
<path d="M0 0 C2.475 0.99 2.475 0.99 5 2 C5 2.99 5 3.98 5 5 C3.68 5 2.36 5 1 5 C0.67 5.66 0.34 6.32 0 7 C-0.33 6.34 -0.66 5.68 -1 5 C-0.67 4.34 -0.34 3.68 0 3 C-0.66 2.67 -1.32 2.34 -2 2 C-1.34 1.34 -0.68 0.68 0 0 Z " fill="#007CC3" transform="translate(189,256)"/>
<path d="M0 0 C1.875 0.25 1.875 0.25 4 1 C4.6837045 2.32467746 5.34964186 3.65863633 6 5 C8.0335948 6.26804566 8.0335948 6.26804566 10 7 C9.67 7.99 9.34 8.98 9 10 C7.49702124 8.52386015 5.99768715 7.04400843 4.5 5.5625 C3.6646875 4.73878906 2.829375 3.91507813 1.96875 3.06640625 C0 1 0 1 0 0 Z " fill="#001616" transform="translate(113,177)"/>
<path d="M0 0 C1.485 0.99 1.485 0.99 3 2 C3 2.66 3 3.32 3 4 C3.99 4 4.98 4 6 4 C6.33 5.32 6.66 6.64 7 8 C4 8 4 8 1.3125 5.5 C0.549375 4.675 -0.21375 3.85 -1 3 C-0.67 2.01 -0.34 1.02 0 0 Z " fill="#0758AA" transform="translate(460,432)"/>
<path d="M0 0 C1.98 0.66 3.96 1.32 6 2 C6 2.66 6 3.32 6 4 C6.99 4.33 7.98 4.66 9 5 C8.67 5.99 8.34 6.98 8 8 C6.85073734 7.04578192 5.70569459 6.08647955 4.5625 5.125 C3.92441406 4.59132813 3.28632813 4.05765625 2.62890625 3.5078125 C1 2 1 2 0 0 Z " fill="#0957A9" transform="translate(449,424)"/>
<path d="M0 0 C1.67542976 0.28604898 3.34385343 0.61781233 5 1 C4.67 2.65 4.34 4.3 4 6 C2.0625 5.1875 2.0625 5.1875 0 4 C-0.33 3.01 -0.66 2.02 -1 1 C-0.67 0.67 -0.34 0.34 0 0 Z " fill="#001111" transform="translate(354,416)"/>
<path d="M0 0 C1.14926266 0.95421808 2.29430541 1.91352045 3.4375 2.875 C4.07558594 3.40867187 4.71367187 3.94234375 5.37109375 4.4921875 C7 6 7 6 8 8 C6.02 8 4.04 8 2 8 C1.33333333 5.33333333 0.66666667 2.66666667 0 0 Z " fill="#00688B" transform="translate(332,397)"/>
<path d="M0 0 C0.99 0.495 0.99 0.495 2 1 C2 7.33333333 2 13.66666667 2 20 C1.34 19.67 0.68 19.34 0 19 C0 12.73 0 6.46 0 0 Z " fill="#0B72CD" transform="translate(97,54)"/>
<path d="M0 0 C2.375 0.25 2.375 0.25 5 1 C6.3125 3.0625 6.3125 3.0625 7 5 C4.625 4.75 4.625 4.75 2 4 C0.6875 1.9375 0.6875 1.9375 0 0 Z " fill="#005FAE" transform="translate(396,560)"/>
<path d="M0 0 C2.04119788 1.61594832 4.04072937 3.2856382 6 5 C6 5.66 6 6.32 6 7 C2.73045798 6.43628586 1.17424117 5.50037734 -1 3 C-0.67 2.01 -0.34 1.02 0 0 Z " fill="#0065AA" transform="translate(364,526)"/>
<path d="M0 0 C0.33 0.66 0.66 1.32 1 2 C1.66 2 2.32 2 3 2 C3 2.66 3 3.32 3 4 C4.32 4.66 5.64 5.32 7 6 C6.01 7.485 6.01 7.485 5 9 C3.02 7.02 1.04 5.04 -1 3 C-0.67 2.01 -0.34 1.02 0 0 Z " fill="#0B50B1" transform="translate(500,472)"/>
<path d="M0 0 C1.98 1.65 3.96 3.3 6 5 C3 6 3 6 1 6 C0.01 6.495 0.01 6.495 -1 7 C-1.33 5.68 -1.66 4.36 -2 3 C-1.34 3 -0.68 3 0 3 C0 2.01 0 1.02 0 0 Z " fill="#006392" transform="translate(390,455)"/>
<path d="M0 0 C1.32 0.66 2.64 1.32 4 2 C4 2.66 4 3.32 4 4 C1.35261084 5.4606285 0.10551666 6 -3 6 C-2 3 -2 3 0 0 Z " fill="#0082CB" transform="translate(159,225)"/>
<path d="M0 0 C1.98 1.65 3.96 3.3 6 5 C2.86650268 6.04449911 2.01031744 5.93423645 -1 5 C-0.67 3.35 -0.34 1.7 0 0 Z " fill="#005E9E" transform="translate(463,528)"/>
<path d="M0 0 C3 1 3 1 4.1875 3.0625 C4.455625 3.701875 4.72375 4.34125 5 5 C4.34 5.66 3.68 6.32 3 7 C1.35 5.02 -0.3 3.04 -2 1 C-1.34 0.67 -0.68 0.34 0 0 Z " fill="#0A76CF" transform="translate(276,248)"/>
<path d="M0 0 C3.16115776 1.36983503 3.9927092 1.9890638 6 5 C3.69 5 1.38 5 -1 5 C-0.67 3.35 -0.34 1.7 0 0 Z " fill="#006C98" transform="translate(302,368)"/>
<path d="M0 0 C2 1.375 2 1.375 4 3 C4 3.66 4 4.32 4 5 C2.02 5 0.04 5 -2 5 C-2 4.01 -2 3.02 -2 2 C-1.34 2 -0.68 2 0 2 C0 1.34 0 0.68 0 0 Z " fill="#005CA8" transform="translate(506,571)"/>
<path d="M0 0 C2.88575819 0.39803561 3.82189513 0.79009069 5.75 3.0625 C6.1625 3.701875 6.575 4.34125 7 5 C6.01 5.33 5.02 5.66 4 6 C4 5.34 4 4.68 4 4 C3.01 4.33 2.02 4.66 1 5 C0.67 3.35 0.34 1.7 0 0 Z " fill="#005EA1" transform="translate(478,545)"/>
<path d="M0 0 C0.33 0.66 0.66 1.32 1 2 C1.66 2 2.32 2 3 2 C3 2.66 3 3.32 3 4 C3.99 4 4.98 4 6 4 C6 4.66 6 5.32 6 6 C5.01 6.33 4.02 6.66 3 7 C1.68 5.68 0.36 4.36 -1 3 C-0.67 2.01 -0.34 1.02 0 0 Z " fill="#0655AD" transform="translate(492,464)"/>
<path d="M0 0 C1.98 1.65 3.96 3.3 6 5 C5.01 6.485 5.01 6.485 4 8 C2 6.25 2 6.25 0 4 C0 2.68 0 1.36 0 0 Z " fill="#006BA2" transform="translate(337,499)"/>
<path d="M0 0 C1.875 0.25 1.875 0.25 4 1 C5.25 3.0625 5.25 3.0625 6 5 C3 5 3 5 1.3125 3.625 C0 2 0 2 0 0 Z " fill="#0854AF" transform="translate(481,455)"/>
<path d="M0 0 C1.98 0 3.96 0 6 0 C5.67 0.99 5.34 1.98 5 3 C4.34 3 3.68 3 3 3 C2.67 3.99 2.34 4.98 2 6 C1.34 5.34 0.68 4.68 0 4 C0 2.68 0 1.36 0 0 Z " fill="#001111" transform="translate(330,390)"/>
<path d="M0 0 C2.33944736 0.28730055 4.6739143 0.61936779 7 1 C6.67 1.66 6.34 2.32 6 3 C2.9375 3.625 2.9375 3.625 0 4 C-0.33 3.01 -0.66 2.02 -1 1 C-0.67 0.67 -0.34 0.34 0 0 Z " fill="#007ED0" transform="translate(180,251)"/>
<path d="M0 0 C1.32 0.99 2.64 1.98 4 3 C3.67 4.32 3.34 5.64 3 7 C1.68 5.68 0.36 4.36 -1 3 C-0.67 2.01 -0.34 1.02 0 0 Z " fill="#0067AA" transform="translate(380,542)"/>
<path d="M0 0 C2.97 0.495 2.97 0.495 6 1 C6 1.99 6 2.98 6 4 C5.01 4 4.02 4 3 4 C1.3125 2 1.3125 2 0 0 Z " fill="#007FB0" transform="translate(203,368)"/>
<path d="M0 0 C1.65 1.65 3.3 3.3 5 5 C3.35 5.33 1.7 5.66 0 6 C-1.24546405 3.50907189 -0.7767578 2.58919267 0 0 Z " fill="#005F98" transform="translate(447,512)"/>
<path d="M0 0 C1.98 1.65 3.96 3.3 6 5 C5.01 5.33 4.02 5.66 3 6 C2.01 5.34 1.02 4.68 0 4 C0 2.68 0 1.36 0 0 Z " fill="#006391" transform="translate(430,495)"/>
<path d="M0 0 C2.475 0.495 2.475 0.495 5 1 C5 2.65 5 4.3 5 6 C3.2925002 4.71937515 1.62626404 3.38232443 0 2 C0 1.34 0 0.68 0 0 Z " fill="#0A4DB4" transform="translate(523,497)"/>
<path d="M0 0 C0.66 0 1.32 0 2 0 C2 2.33333333 2 4.66666667 2 7 C0.35 5.35 -1.3 3.7 -3 2 C-2.01 2 -1.02 2 0 2 C0 1.34 0 0.68 0 0 Z " fill="#0B73CB" transform="translate(304,274)"/>
</svg>
